<?xml version="1.0" encoding="utf-8"?>
<!-- Generator: Adobe Illustrator 24.1.1, SVG Export Plug-In . SVG Version: 6.00 Build 0)  -->
<svg version="1.1" id="Layer_1" xmlns="http://www.w3.org/2000/svg" xmlns:xlink="http://www.w3.org/1999/xlink" x="0px" y="0px"
	 viewBox="0 0 567.9 567.9" style="enable-background:new 0 0 567.9 567.9;" xml:space="preserve">
<style type="text/css">
	.st0{fill:#CCCCCC;}
	.st1{font-family:'Shabnam-Bold';}
	.st2{font-size:62.075px;}
</style>
<g>
	<path class="st0" d="M160.1,94.5c12.8-3.2,26.2-1.4,39.3-1.6c80.5,0,161.1,0.2,241.7-0.1c8.6,0,17.9,1.5,24.1,8.1
		c7.5,6.5,10.3,16.6,9.9,26.2c-0.4,53-0.1,106-0.2,159c-0.2,12.5,1.3,25.2-1.1,37.6c-3.1,12.5-15,19.7-26.1,24.3
		c-2.8-15.6,6.1-29.6,6.2-44.9c-0.3-56.5-0.5-113.1,0.1-169.6c-0.6-6.8,1.1-15.8-4.8-20.7c-9.3-3.7-19.6-2-29.3-2.2
		c-81.3,0.3-162.6,0.1-243.9,0c-8.9,0-15.5,6.8-23.5,9.5c-4.3,0.3-8.6-0.7-12.8-1.4C143.7,108.9,149.2,97.9,160.1,94.5z"/>
	<path class="st0" d="M122,132.6c12.8-3.2,26.2-1.4,39.3-1.6c80.5-0.1,161.1,0.2,241.7-0.1c8.6,0,18,1.5,24.1,8.1
		c7.5,6.5,10.2,16.6,9.9,26.2c-0.4,53.7-0.1,107.4-0.2,161.2c-0.2,12.3,1.5,25-1.5,37.1c-4.9,13-18.1,22.6-32.2,22.1
		c-82-0.1-164-0.2-246,0c-15.2,0-33.5,2.6-44.9-10c-12.1-10.8-10.1-28.2-10-42.8c0.2-49.4,0.2-98.9,0-148.3
		c0.2-11.7-1.6-24,2.8-35.2C108.4,141.9,114.1,135.2,122,132.6 M124.2,155.6c-3.4,15.7-0.8,31.9-1.4,47.8c0.6,26.4-1.4,53,1,79.4
		c7.2-3.9,13.6-9.1,19.3-15c15-14,29.9-28,45-41.9c7.1-6.3,13-14.5,22-18.3c8.1,3.3,13.7,10.3,20,16c16.7,15,32.2,31.4,49.2,46.2
		c12.5,10.7,22.5,24.8,37.2,32.7c6-1.1,10.7-5.4,15.3-9.1c11.4-9.7,22.3-19.9,35.2-27.6c17.2,9.7,30.2,25.1,47,35.4
		c3-18.4,1.2-36.9,1.5-55.4c0-26.2,0-52.4,0.3-78.5c-0.6-5.8,0.5-14.5-6.4-16.8c-11.7-3.3-24.1-1.4-36.1-1.7
		c-77.7,0-155.5,0.2-233.3-0.1C134.3,149.1,126,148.8,124.2,155.6 M190.1,249.1c-17.7,16.2-34.9,32.9-53,48.8
		c-4.7,4.5-10.1,8.6-12.8,14.6c-2.4,7.9-1.8,16.3-1.9,24.4c0.2,7.9-0.3,16.2,2.5,23.8c5.4,4.3,12.9,3.4,19.5,3.8
		c63.6-0.6,127.2-0.1,190.8-0.2c4.7-0.1,9.3-0.5,13.9-0.8c-7.7-13.3-21.3-21.2-31.4-32.4c-26.3-25.3-53.5-49.5-79.7-75
		c-9.2-7.8-16.9-17.8-27.9-23.2C202.1,236.5,196.4,243.4,190.1,249.1 M332.1,318.2c9.3,11.3,21.1,20.2,31,31
		c6.8,7,14.3,15,24.7,15.4c8.1,0.4,17.3,1.2,24.4-3.5c5.1-8.3,4.1-19.1,3.2-28.4c-0.7-7.6-7.5-12.2-12.9-16.6
		c-11.9-8.8-22.7-19.2-35.6-26.6C354.3,297.7,342.4,307.2,332.1,318.2z"/>
	<path class="st0" d="M310.4,170.5c13.3-2.9,27.9,2,36.7,12.3c9,10.3,11.9,25.4,7.5,38.2c-6,16.1-23.4,27.3-40.7,24.8
		c-21.1-1.6-37-23.5-33.3-44C283.2,186.8,295.7,174,310.4,170.5 M316.6,187.5c-13.8,0.6-22.4,16.9-15.5,28.8
		c6.3,13.7,28.3,14.6,35,0.8C344.6,204,331.4,185.8,316.6,187.5z"/>
</g>
<text transform="matrix(1 0 0 1 140.6875 467.298)" class="st0 st1 st2">ریوصت نودب</text>
</svg>
